<svg xmlns="http://www.w3.org/2000/svg" viewBox="0 0 1080 360" width="1080" height="360">
  <defs>
    <style>
      .bg { fill: #f5f5f7; }
      .card { fill: #fff; stroke: #e5e5ea; stroke-width: 1; }
      .ink { fill: none; stroke: #1d1d1f; stroke-width: 6; stroke-linecap: round; stroke-linejoin: round; }
      .fill { fill: #1d1d1f; }
      .label { font-family: -apple-system, BlinkMacSystemFont, "Segoe UI", sans-serif; font-size: 52px; font-weight: 500; fill: #1d1d1f; letter-spacing: 0; }
      .opt { font-family: -apple-system, BlinkMacSystemFont, "Segoe UI", sans-serif; font-size: 18px; font-weight: 700; fill: #6e6e73; }
    </style>
  </defs>

  <rect class="bg" width="1080" height="360" rx="28"/>

  <g transform="translate(28 34)">
    <rect class="card" width="320" height="292" rx="24"/>
    <text class="opt" x="160" y="42" text-anchor="middle">Option 1</text>
    <g transform="translate(53 105)">
      <g transform="translate(0 0)">
        <circle class="ink" cx="26" cy="22" r="13"/>
        <circle class="ink" cx="62" cy="28" r="10"/>
        <path class="ink" d="M8 78c1-19 12-29 29-29s28 10 29 29"/>
        <path class="ink" d="M52 77c2-13 10-20 24-20 12 0 20 6 23 18"/>
      </g>
      <text class="label" x="128" y="58">Admin</text>
      <path class="ink" d="M0 102h220"/>
    </g>
  </g>

  <g transform="translate(380 34)">
    <rect class="card" width="320" height="292" rx="24"/>
    <text class="opt" x="160" y="42" text-anchor="middle">Option 2</text>
    <g transform="translate(54 105)">
      <g transform="translate(0 0)">
        <path class="ink" d="M32 8l38 15v30c0 24-16 39-38 48C10 92-6 77-6 53V23z"/>
        <circle class="fill" cx="32" cy="39" r="8"/>
        <path class="ink" d="M12 74c3-15 10-22 20-22s17 7 20 22"/>
      </g>
      <text class="label" x="128" y="58">Admin</text>
      <path class="ink" d="M0 102h220"/>
    </g>
  </g>

  <g transform="translate(732 34)">
    <rect class="card" width="320" height="292" rx="24"/>
    <text class="opt" x="160" y="42" text-anchor="middle">Option 3</text>
    <g transform="translate(53 105)">
      <g transform="translate(0 0)">
        <circle class="ink" cx="22" cy="24" r="11"/>
        <circle class="ink" cx="61" cy="24" r="11"/>
        <path class="ink" d="M2 78c3-16 11-24 24-24 8 0 14 3 19 9"/>
        <path class="ink" d="M80 78c-3-16-11-24-24-24-8 0-14 3-19 9"/>
        <path class="ink" d="M12 98h58"/>
        <path class="ink" d="M42 12v60"/>
      </g>
      <text class="label" x="128" y="58">Admin</text>
      <path class="ink" d="M0 102h220"/>
    </g>
  </g>
</svg>
