<svg xmlns="http://www.w3.org/2000/svg" viewBox="0 0 960 360" width="960" height="360">
  <defs>
    <style>
      .bg { fill: #f5f5f7; }
      .card { fill: #ffffff; stroke: #e5e5ea; stroke-width: 1; }
      .avatar { fill: #e8f3ff; stroke: #c8e1ff; stroke-width: 2; }
      .icon { fill: none; stroke: #0071e3; stroke-width: 4.5; stroke-linecap: round; stroke-linejoin: round; }
      .dot { fill: #0071e3; }
      .title { font-family: -apple-system, BlinkMacSystemFont, "Segoe UI", sans-serif; font-size: 22px; font-weight: 700; fill: #1d1d1f; }
      .caption { font-family: -apple-system, BlinkMacSystemFont, "Segoe UI", sans-serif; font-size: 15px; fill: #6e6e73; }
    </style>
  </defs>

  <rect class="bg" width="960" height="360" rx="28"/>

  <g transform="translate(36 36)">
    <rect class="card" width="276" height="288" rx="24"/>
    <circle class="avatar" cx="138" cy="112" r="52"/>
    <g transform="translate(96 70)">
      <circle class="icon" cx="42" cy="31" r="16"/>
      <path class="icon" d="M16 78c5.6-16 14.3-24 26-24s20.4 8 26 24"/>
      <path class="icon" d="M21 26h42"/>
    </g>
    <text class="title" x="138" y="214" text-anchor="middle">Option 1</text>
    <text class="caption" x="138" y="244" text-anchor="middle">Learner</text>
  </g>

  <g transform="translate(342 36)">
    <rect class="card" width="276" height="288" rx="24"/>
    <circle class="avatar" cx="138" cy="112" r="52"/>
    <g transform="translate(92 72)">
      <path class="icon" d="M12 18c14 0 24 4.5 34 13v56c-10-8.5-20-13-34-13z"/>
      <path class="icon" d="M80 18c-14 0-24 4.5-34 13v56c10-8.5 20-13 34-13z"/>
      <path class="icon" d="M46 31v56"/>
      <circle class="dot" cx="46" cy="16" r="6"/>
    </g>
    <text class="title" x="138" y="214" text-anchor="middle">Option 2</text>
    <text class="caption" x="138" y="244" text-anchor="middle">Open Book</text>
  </g>

  <g transform="translate(648 36)">
    <rect class="card" width="276" height="288" rx="24"/>
    <circle class="avatar" cx="138" cy="112" r="52"/>
    <g transform="translate(95 71)">
      <path class="icon" d="M18 32l24-14 24 14-24 14z"/>
      <path class="icon" d="M26 40v18c4.8 5.3 10.1 8 16 8s11.2-2.7 16-8V40"/>
      <path class="icon" d="M66 32v20"/>
      <circle class="dot" cx="66" cy="59" r="4.8"/>
    </g>
    <text class="title" x="138" y="214" text-anchor="middle">Option 3</text>
    <text class="caption" x="138" y="244" text-anchor="middle">Academy</text>
  </g>
</svg>
