<svg width="240" height="240" viewBox="0 0 240 240" fill="none" xmlns="http://www.w3.org/2000/svg">
<g clip-path="url(#clip0_2603_5143)">
<path d="M20.3048 20H220.305V130.394C220.305 180.1 180.01 220.394 130.305 220.394H110.305C60.5992 220.394 20.3048 180.1 20.3048 130.394V20Z" fill="#999999"/>
<path d="M129.142 220.387L130.305 220.394C179.622 220.394 219.674 180.727 220.297 131.558L220.305 130.394V20H40.3048V130.394L40.3126 131.558C40.9307 180.34 80.3594 219.769 129.142 220.387Z" fill="#CCCCCC"/>
<mask id="mask0_2603_5143" style="mask-type:alpha" maskUnits="userSpaceOnUse" x="62" y="42" width="137" height="157">
<path d="M198.305 42V130.394C198.305 167.949 167.86 198.394 130.305 198.394C92.7495 198.394 62.3048 167.949 62.3048 130.394V42H198.305Z" fill="#D9D9D9"/>
</mask>
<g mask="url(#mask0_2603_5143)">
<path d="M198.305 42V130.394C198.305 167.949 167.86 198.394 130.305 198.394C92.7495 198.394 62.3048 167.949 62.3048 130.394V42H198.305Z" fill="#999999"/>
<path d="M188.305 42V130.394C188.305 167.949 157.86 198.394 120.305 198.394C82.7495 198.394 52.3048 167.949 52.3048 130.394V42H188.305Z" fill="#B3B3B3"/>
</g>
<path d="M127 72.0225C114.743 72.0227 104.807 81.9589 104.807 94.2158V100.326C102.16 100.577 99.7807 102.107 98.4611 104.452L85.9435 126.695C84.5439 129.182 84.5439 132.22 85.9435 134.707L98.4611 156.95C99.908 159.521 102.629 161.112 105.579 161.112H148.422C151.372 161.112 154.093 159.521 155.54 156.95L168.058 134.707C169.457 132.22 169.457 129.182 168.058 126.695L155.54 104.452C154.221 102.107 151.841 100.577 149.194 100.326V94.2158C149.194 81.9588 139.257 72.0225 127 72.0225ZM131.305 115.987C131.874 115.987 132.4 116.291 132.685 116.784L136.952 124.176C137.237 124.669 137.237 125.277 136.952 125.77L132.643 133.234C132.41 133.638 132.365 134.124 132.521 134.563L135.524 143.036C135.891 144.073 135.122 145.162 134.022 145.162H120.046C118.946 145.162 118.176 144.073 118.544 143.036L121.549 134.558C121.705 134.118 121.66 133.631 121.427 133.228L117.121 125.77C116.837 125.276 116.837 124.669 117.121 124.176L121.389 116.784C121.673 116.291 122.199 115.987 122.769 115.987H131.305ZM127 83.9248C132.684 83.9249 137.292 88.5323 137.292 94.2158V100.29H116.709V94.2158C116.709 88.5323 121.317 83.925 127 83.9248Z" fill="#CCCCCC"/>
</g>
<defs>
<clipPath id="clip0_2603_5143">
<rect width="200" height="200" fill="white" transform="translate(20.3047 20)"/>
</clipPath>
</defs>
</svg>
